<?xml version="1.0" standalone="no"?>
<!DOCTYPE svg PUBLIC "-//W3C//DTD SVG 20010904//EN"
 "http://www.w3.org/TR/2001/REC-SVG-20010904/DTD/svg10.dtd">
<svg version="1.0" xmlns="http://www.w3.org/2000/svg"
 width="1900.000000pt" height="1900.000000pt" viewBox="0 0 1900.000000 1900.000000"
 preserveAspectRatio="xMidYMid meet">
<metadata>
Created by potrace 1.11, written by Peter Selinger 2001-2013
</metadata>
<g transform="translate(0.000000,1900.000000) scale(0.100000,-0.100000)"
fill="#000000" stroke="none">
<path d="M9088 18215 c-2 -2 -51 -6 -108 -10 -58 -3 -127 -7 -155 -9 -112 -10
-202 -18 -230 -21 -16 -2 -59 -6 -95 -10 -36 -3 -72 -8 -80 -10 -8 -3 -35 -7
-60 -9 -84 -10 -299 -43 -390 -61 -45 -9 -67 -13 -104 -19 -19 -3 -55 -10 -78
-15 -24 -6 -56 -12 -73 -15 -35 -7 -28 -5 -220 -50 -267 -63 -853 -240 -917
-276 -10 -6 -23 -10 -29 -10 -6 0 -25 -6 -42 -14 -18 -8 -70 -28 -117 -46 -47
-17 -98 -37 -115 -45 -16 -8 -91 -40 -165 -71 -354 -148 -766 -360 -1085 -558
-33 -20 -69 -42 -80 -49 -37 -22 -433 -286 -452 -300 -10 -9 -74 -57 -143
-109 -195 -145 -229 -172 -229 -182 -1 -7 71 -96 115 -143 6 -6 58 -67 115
-134 57 -67 115 -134 129 -149 14 -15 40 -45 58 -68 19 -23 44 -52 55 -65 12
-12 40 -45 62 -71 22 -27 51 -61 65 -76 14 -15 45 -51 69 -80 25 -29 50 -58
55 -64 6 -6 49 -56 96 -111 47 -55 87 -102 90 -105 3 -3 35 -39 70 -80 35 -41
66 -77 69 -80 3 -3 28 -32 56 -65 27 -33 52 -62 55 -65 3 -3 50 -57 104 -120
54 -63 120 -140 146 -170 26 -30 78 -91 116 -135 38 -44 74 -85 80 -92 8 -9
39 9 125 74 108 81 481 333 494 333 3 0 23 11 44 24 94 60 525 286 543 286 3
0 38 15 79 34 41 19 77 35 82 35 4 0 21 8 39 17 17 9 79 34 137 56 58 21 113
42 121 45 8 3 17 7 20 8 3 1 12 4 20 8 156 62 639 198 830 233 14 3 61 12 105
20 106 20 180 33 235 40 25 3 56 8 70 10 87 16 303 37 520 50 251 15 703 5
920 -21 30 -4 73 -9 95 -11 22 -3 58 -7 80 -10 22 -3 60 -7 84 -10 24 -2 46
-6 50 -8 3 -2 30 -7 60 -11 30 -4 63 -9 75 -11 12 -3 55 -11 96 -19 41 -8 86
-17 100 -19 14 -3 45 -10 70 -15 84 -18 294 -72 395 -103 55 -16 114 -33 130
-38 46 -12 347 -120 377 -136 16 -8 28 -12 28 -8 0 4 6 1 14 -5 8 -7 22 -13
32 -16 54 -11 498 -223 669 -320 28 -15 86 -48 130 -73 109 -62 426 -272 559
-370 l108 -80 40 45 c22 25 45 51 51 58 7 7 32 36 57 66 25 29 63 74 85 99 22
26 60 70 85 99 48 57 49 58 126 147 28 32 98 113 155 180 91 105 125 145 206
240 26 31 126 146 138 158 6 6 62 72 125 146 63 74 117 137 120 140 3 3 46 52
95 110 50 58 95 110 100 116 6 6 30 35 55 64 25 29 50 58 55 64 6 6 37 42 69
80 l60 69 -40 34 c-21 19 -43 38 -49 42 -5 4 -50 37 -98 74 -233 178 -502 360
-767 519 -309 185 -548 310 -935 488 -73 34 -239 102 -355 147 -63 24 -124 48
-135 53 -23 10 -56 22 -70 26 -5 1 -71 24 -145 50 -243 84 -657 204 -822 238
-13 3 -34 8 -48 11 -14 3 -36 8 -50 11 -14 3 -65 14 -113 25 -48 10 -104 22
-124 25 -19 3 -45 8 -57 10 -11 2 -37 7 -56 10 -19 3 -42 7 -50 9 -8 3 -33 7
-55 10 -22 4 -51 8 -65 11 -14 3 -42 7 -62 9 -21 3 -49 7 -62 9 -13 2 -50 8
-82 11 -33 4 -67 9 -78 11 -10 2 -44 6 -75 9 -31 3 -72 8 -91 11 -39 5 -117
12 -225 20 -38 2 -95 7 -125 10 -63 5 -957 14 -962 9z"/>
<path d="M15288 15888 c-25 -29 -80 -93 -122 -143 -43 -49 -90 -103 -105 -120
-15 -16 -49 -57 -76 -90 -28 -33 -55 -64 -61 -70 -6 -5 -78 -89 -160 -185 -82
-96 -151 -177 -154 -180 -3 -3 -30 -34 -60 -70 -30 -36 -61 -72 -70 -81 -8 -8
-31 -34 -50 -58 -32 -38 -66 -78 -118 -136 -10 -11 -45 -51 -78 -90 -32 -38
-63 -75 -69 -81 -5 -6 -30 -35 -55 -64 -25 -29 -49 -58 -55 -64 -5 -6 -64 -74
-130 -151 -66 -77 -127 -149 -137 -160 -10 -11 -32 -35 -48 -54 l-30 -35 123
-125 c152 -155 177 -181 248 -262 86 -98 252 -300 279 -339 8 -12 28 -39 43
-59 31 -38 175 -244 192 -273 5 -9 42 -68 81 -130 158 -250 328 -574 439 -838
31 -74 67 -160 80 -191 24 -55 173 -495 180 -530 2 -10 13 -52 25 -94 12 -42
23 -85 26 -96 2 -10 7 -29 10 -41 11 -42 24 -103 30 -133 3 -16 7 -37 10 -45
12 -33 57 -279 70 -380 2 -19 7 -46 9 -60 5 -26 10 -65 20 -160 3 -30 8 -68
10 -85 5 -33 14 -157 21 -275 7 -115 7 -503 0 -610 -11 -173 -23 -321 -31
-385 -2 -16 -7 -57 -10 -90 -4 -33 -8 -62 -10 -65 -2 -3 -6 -31 -9 -63 -6 -48
-21 -138 -51 -302 -4 -16 -17 -79 -31 -140 -14 -60 -27 -121 -30 -135 -3 -14
-8 -34 -11 -45 -4 -11 -8 -24 -9 -30 -4 -24 -48 -176 -71 -248 -14 -43 -26
-84 -27 -90 -2 -7 -6 -19 -9 -27 -3 -8 -12 -35 -21 -60 -32 -98 -129 -351
-166 -435 -66 -147 -131 -284 -176 -370 -91 -177 -96 -186 -104 -183 -9 3 -99
89 -453 432 -252 243 -314 303 -618 596 -122 118 -257 249 -300 290 -42 41
-173 167 -289 280 -117 113 -243 234 -280 270 -94 92 -490 474 -580 560 -41
40 -176 170 -300 290 -124 120 -283 273 -354 341 -146 141 -114 87 -346 589
-32 69 -77 166 -100 215 -23 50 -68 146 -100 215 -86 187 -124 269 -156 335
-16 33 -29 62 -29 65 -1 3 -24 54 -53 114 -29 59 -52 110 -52 112 0 2 -23 52
-51 111 -28 60 -63 133 -76 163 -14 30 -43 93 -65 140 -22 47 -93 200 -158
340 -111 241 -139 302 -226 488 -20 42 -62 133 -94 202 -32 69 -78 168 -102
220 -24 52 -58 124 -74 159 -16 36 -50 108 -75 160 l-45 96 -2 -2723 -3 -2722
123 -119 c68 -65 161 -156 208 -201 47 -45 197 -191 334 -324 137 -132 280
-270 317 -306 37 -36 165 -160 285 -276 121 -117 257 -249 304 -294 109 -105
528 -510 635 -615 46 -44 188 -181 316 -305 128 -124 262 -254 299 -290 37
-36 169 -164 293 -284 125 -121 227 -222 227 -225 -2 -17 -322 -240 -518 -360
-267 -164 -444 -254 -847 -431 -11 -4 -42 -16 -70 -26 -27 -10 -54 -21 -60
-24 -13 -9 -382 -134 -455 -154 -30 -8 -104 -29 -165 -46 -60 -17 -123 -33
-140 -36 -16 -3 -52 -11 -80 -19 -27 -8 -63 -16 -80 -19 -16 -2 -52 -9 -80
-15 -82 -17 -88 -18 -136 -25 -46 -7 -74 -12 -119 -21 -14 -3 -48 -8 -76 -10
-28 -3 -62 -8 -75 -11 -28 -6 -70 -11 -159 -19 -36 -3 -76 -8 -90 -10 -91 -18
-813 -26 -995 -11 -177 14 -280 24 -315 31 -9 2 -41 6 -71 10 -30 3 -79 10
-109 15 -30 5 -71 11 -90 14 -54 9 -93 16 -120 22 -14 3 -36 8 -50 10 -274 47
-840 218 -1105 334 -11 4 -85 37 -165 71 -142 62 -381 180 -510 253 -36 21
-73 40 -82 43 -10 3 -18 9 -18 13 0 4 -8 10 -17 14 -10 3 -31 15 -48 26 -16
10 -43 27 -60 36 -31 17 -321 210 -339 226 -6 5 -39 29 -73 54 -35 25 -63 49
-63 52 0 4 70 75 156 157 86 83 193 186 239 230 45 44 171 166 279 270 109
105 235 226 280 270 46 44 190 184 321 310 131 127 266 257 300 290 194 187
470 453 560 540 57 55 199 192 316 305 117 113 243 234 279 270 303 292 515
497 568 548 l62 59 1 584 c5 2645 6 4855 2 4862 -3 5 -28 -40 -55 -100 -27
-59 -69 -150 -94 -201 -24 -51 -44 -94 -44 -96 0 -2 -24 -55 -54 -117 -29 -63
-65 -139 -79 -169 -101 -221 -140 -305 -147 -319 -15 -27 -100 -211 -100 -215
0 -2 -29 -66 -65 -141 -36 -75 -65 -138 -65 -140 0 -2 -20 -46 -44 -97 -71
-149 -185 -394 -218 -468 -11 -25 -35 -76 -53 -115 -18 -38 -47 -101 -65 -140
-18 -38 -55 -117 -81 -174 -27 -57 -49 -104 -49 -106 0 -1 -27 -60 -60 -130
-34 -70 -85 -180 -114 -244 -30 -64 -70 -152 -91 -196 -20 -44 -44 -96 -53
-115 -8 -19 -46 -98 -82 -175 l-67 -140 -228 -220 c-125 -121 -256 -247 -290
-280 -34 -33 -155 -150 -269 -260 -114 -110 -245 -236 -290 -280 -46 -44 -183
-177 -306 -295 -123 -118 -251 -242 -285 -275 -125 -121 -542 -523 -659 -637
-67 -64 -168 -162 -226 -218 -58 -56 -183 -177 -278 -269 -96 -91 -247 -237
-335 -323 -108 -104 -165 -154 -172 -147 -14 14 -71 121 -154 285 -67 136
-221 485 -221 503 0 5 -8 26 -17 47 -9 22 -18 44 -19 49 -1 6 -15 44 -29 85
-30 84 -84 254 -91 285 -2 11 -8 31 -13 45 -15 39 -91 347 -107 435 -1 6 -3
12 -4 15 -1 3 -3 14 -4 25 -2 11 -10 58 -19 105 -17 89 -25 141 -33 200 -2 19
-7 51 -10 70 -3 19 -7 46 -8 60 -15 137 -19 168 -21 191 -33 255 -32 827 0
1159 3 25 7 70 10 101 3 31 8 66 10 80 3 13 7 48 10 79 3 31 8 67 10 80 3 14
8 41 11 60 2 19 7 46 10 60 10 57 13 69 18 102 8 48 53 261 71 333 9 33 17 67
19 76 65 263 198 645 321 920 80 178 244 496 320 620 6 9 19 32 29 50 28 51
201 314 249 382 224 310 414 535 677 802 l109 110 -86 100 c-47 55 -109 127
-137 159 -28 32 -59 68 -69 80 -9 12 -27 32 -40 46 -13 14 -47 54 -77 90 -30
36 -57 67 -60 70 -3 3 -36 41 -74 85 -38 44 -80 94 -95 110 -14 17 -66 77
-115 135 -50 58 -92 107 -96 110 -3 3 -43 50 -90 105 -46 55 -89 105 -95 111
-6 6 -31 35 -56 64 -24 29 -49 58 -54 64 -6 6 -53 60 -105 121 -126 146 -127
147 -211 245 -120 141 -157 180 -168 180 -13 0 -412 -396 -522 -519 -46 -52
-93 -104 -104 -116 -60 -67 -84 -96 -172 -203 -52 -64 -103 -126 -112 -137
-33 -40 -249 -332 -292 -395 -24 -36 -47 -66 -51 -68 -5 -2 -8 -10 -8 -17 0
-7 -3 -15 -8 -17 -14 -6 -332 -508 -332 -524 0 -3 -11 -21 -23 -42 -13 -20
-43 -73 -67 -117 -24 -44 -55 -102 -70 -130 -94 -172 -281 -568 -315 -665 -3
-8 -35 -82 -50 -115 -7 -16 -41 -104 -75 -195 -34 -91 -65 -174 -70 -185 -9
-21 -82 -243 -86 -260 -1 -5 -16 -53 -33 -105 -17 -52 -31 -102 -31 -111 0 -9
-3 -19 -7 -23 -4 -3 -8 -12 -9 -19 -1 -7 -9 -38 -18 -69 -10 -31 -19 -68 -22
-82 -2 -14 -9 -37 -14 -51 -5 -14 -7 -25 -5 -25 2 0 0 -12 -6 -27 -6 -16 -12
-35 -14 -43 -2 -8 -20 -87 -39 -175 -20 -88 -38 -169 -40 -180 -26 -138 -46
-248 -51 -285 -4 -24 -8 -47 -10 -50 -2 -3 -6 -30 -10 -60 -3 -30 -10 -80 -15
-110 -5 -30 -11 -75 -14 -100 -14 -119 -18 -148 -21 -190 -2 -25 -6 -72 -10
-105 -24 -245 -30 -390 -30 -790 0 -341 5 -487 19 -680 9 -105 18 -209 21
-230 2 -11 6 -47 9 -80 4 -33 8 -71 10 -85 3 -14 10 -66 16 -115 6 -50 12 -97
14 -105 1 -8 6 -37 10 -65 4 -27 14 -84 23 -125 8 -41 17 -92 19 -112 4 -30
24 -129 38 -188 2 -8 11 -49 20 -90 9 -41 25 -111 36 -155 11 -44 23 -91 26
-105 2 -14 8 -34 11 -45 4 -11 8 -24 9 -30 9 -36 15 -56 29 -105 9 -30 20 -71
25 -90 15 -66 152 -474 215 -639 171 -449 415 -957 641 -1334 30 -49 54 -93
54 -98 0 -5 5 -9 10 -9 6 0 10 -4 10 -9 0 -5 15 -33 33 -62 35 -59 274 -416
310 -464 12 -16 62 -84 111 -150 81 -108 232 -302 246 -315 3 -3 28 -32 55
-65 28 -33 52 -62 55 -65 3 -3 39 -43 80 -90 41 -47 91 -103 110 -124 108
-122 456 -462 615 -601 50 -43 106 -92 125 -109 31 -27 111 -95 175 -148 21
-17 183 -146 222 -176 12 -9 32 -24 44 -32 12 -8 34 -24 48 -36 149 -117 578
-395 846 -549 189 -108 631 -328 830 -413 168 -71 501 -202 530 -209 6 -1 88
-29 183 -61 95 -33 175 -60 178 -60 2 -1 30 -8 62 -18 31 -10 62 -18 67 -20 6
-1 66 -18 135 -37 103 -29 248 -66 320 -82 105 -24 252 -55 277 -58 17 -3 36
-7 40 -10 5 -3 27 -8 49 -11 21 -3 50 -7 64 -10 52 -10 277 -46 315 -50 22 -3
56 -8 75 -11 19 -2 55 -7 80 -10 25 -4 56 -8 70 -10 14 -2 57 -6 95 -10 39 -3
88 -8 110 -11 44 -5 138 -11 320 -22 241 -14 842 -8 1090 12 28 2 88 7 135 10
47 4 96 9 110 11 14 2 52 6 85 10 102 10 204 23 310 40 22 3 54 8 70 10 17 2
45 6 63 9 17 3 47 8 65 11 54 9 135 25 287 57 143 30 163 34 198 42 9 2 40 10
67 16 28 6 57 13 65 15 8 2 58 16 110 30 52 14 100 27 105 28 6 2 16 6 23 11
7 4 16 6 18 3 3 -3 20 1 38 8 18 8 44 16 57 19 13 2 110 33 214 67 105 35 192
63 195 64 3 1 13 5 23 8 41 16 53 20 62 22 20 5 461 183 530 215 39 17 90 41
115 52 488 220 1077 569 1540 912 112 83 362 278 380 296 3 3 52 45 110 94 58
49 115 99 126 110 12 12 59 55 105 96 250 226 544 537 807 855 290 350 638
859 854 1251 184 332 281 530 402 819 37 88 73 171 80 185 7 14 16 37 19 51 4
14 13 42 22 62 8 20 14 38 13 39 -1 2 4 14 12 27 10 20 159 445 159 454 0 3 6
24 19 67 6 19 16 55 23 80 7 25 14 50 15 55 5 15 85 318 89 335 2 8 8 35 14
60 11 43 16 64 25 113 9 40 15 68 20 85 3 9 8 31 10 47 3 17 10 55 16 85 6 30
13 64 14 75 2 11 8 47 14 80 20 105 24 129 27 160 2 17 13 93 24 171 11 77 23
165 26 195 3 30 8 72 10 94 3 22 7 72 10 110 3 39 7 90 9 115 21 220 28 905
12 1140 -4 63 -9 140 -11 170 -4 66 -18 213 -30 310 -3 19 -7 56 -10 81 -3 25
-7 54 -9 65 -2 10 -7 48 -11 84 -4 36 -9 74 -12 85 -2 11 -6 38 -9 60 -3 22
-7 48 -10 58 -3 10 -7 32 -10 50 -2 18 -15 91 -30 162 -14 72 -27 139 -29 150
-2 11 -17 81 -35 155 -17 74 -33 142 -35 150 -18 81 -94 355 -127 460 -36 114
-89 274 -98 295 -4 11 -29 79 -55 150 -26 72 -57 155 -70 185 -13 30 -38 91
-55 135 -87 214 -313 683 -399 825 -11 19 -25 44 -30 55 -5 11 -36 66 -70 123
-34 57 -61 108 -61 113 0 5 -4 9 -10 9 -5 0 -10 6 -10 13 0 7 -7 22 -15 32 -8
11 -48 72 -87 135 -40 63 -74 117 -78 120 -3 3 -21 30 -40 60 -19 30 -38 60
-42 65 -5 6 -49 69 -100 140 -50 72 -94 132 -98 135 -3 3 -17 21 -30 40 -13
19 -58 78 -100 130 -41 52 -82 104 -90 116 -13 18 -66 81 -125 149 -11 12 -42
49 -70 81 -55 65 -111 128 -195 218 -56 61 -331 337 -411 414 l-45 42 -46 -52z"/>
</g>
</svg>
